<svg width="28" height="29" viewBox="0 0 28 29" fill="none" xmlns="http://www.w3.org/2000/svg">
<path d="M21.7934 28.5H6.19336C2.89336 28.5 0.193359 25.8 0.193359 22.5V22.3L0.793359 6.3C0.89336 3 3.59336 0.5 6.79336 0.5H21.1934C24.3934 0.5 27.0934 3 27.1934 6.3L27.7934 22.3C27.8934 23.9 27.2934 25.4 26.1934 26.6C25.0934 27.8 23.5934 28.5 21.9934 28.5H21.7934ZM6.79336 2.5C4.59336 2.5 2.89336 4.2 2.79336 6.3L2.19336 22.5C2.19336 24.7 3.99336 26.5 6.19336 26.5H21.9934C23.0934 26.5 24.0934 26 24.7934 25.2C25.4934 24.4 25.8934 23.4 25.8934 22.3L25.2934 6.3C25.1934 4.1 23.4934 2.5 21.2934 2.5L6.79336 2.5Z" fill="#30D5C8"/>
<path d="M13.9941 12.5C10.0941 12.5 6.99414 9.4 6.99414 5.5C6.99414 4.9 7.39414 4.5 7.99414 4.5C8.59414 4.5 8.99414 4.9 8.99414 5.5C8.99414 8.3 11.1941 10.5 13.9941 10.5C16.7941 10.5 18.9941 8.3 18.9941 5.5C18.9941 4.9 19.3941 4.5 19.9941 4.5C20.5941 4.5 20.9941 4.9 20.9941 5.5C20.9941 9.4 17.8941 12.5 13.9941 12.5Z" fill="#30D5C8"/>
</svg>
