<svg width="70" height="69" viewBox="0 0 70 69" fill="none" xmlns="http://www.w3.org/2000/svg">
<path d="M60.3729 14.6113H41.2793C39.9745 14.6113 38.8926 13.5293 38.8926 12.2246C38.8926 10.9199 39.9745 9.83789 41.2793 9.83789H60.3729C61.6776 9.83789 62.7596 10.9199 62.7596 12.2246C62.7596 13.5293 61.6776 14.6113 60.3729 14.6113ZM50.8261 24.1581H41.2793C39.9745 24.1581 38.8926 23.0761 38.8926 21.7714C38.8926 20.4667 39.9745 19.3847 41.2793 19.3847H50.8261C52.1308 19.3847 53.2128 20.4667 53.2128 21.7714C53.2128 23.0761 52.1308 24.1581 50.8261 24.1581ZM66.7374 68.7098C66.1328 68.7098 65.5281 68.487 65.0508 68.0097L58.6863 61.6452C57.7634 60.7223 57.7634 59.1948 58.6863 58.272C59.6091 57.3491 61.1366 57.3491 62.0595 58.272L68.424 64.6365C69.3469 65.5594 69.3469 67.0868 68.424 68.0097C67.9467 68.487 67.342 68.7098 66.7374 68.7098Z" fill="white"/>
<path d="M33.3233 65.5275C15.3435 65.5275 0.705078 50.889 0.705078 32.9092C0.705078 14.9294 15.3435 0.291016 33.3233 0.291016C34.628 0.291016 35.71 1.37299 35.71 2.67771C35.71 3.98244 34.628 5.06441 33.3233 5.06441C17.953 5.06441 5.47848 17.5707 5.47848 32.9092C5.47848 48.2477 17.953 60.7541 33.3233 60.7541C48.6936 60.7541 61.1681 48.2477 61.1681 32.9092C61.1681 31.6045 62.2501 30.5225 63.5548 30.5225C64.8596 30.5225 65.9415 31.6045 65.9415 32.9092C65.9415 50.889 51.3031 65.5275 33.3233 65.5275Z" fill="white"/>
</svg>
