<svg width="24" height="25" viewBox="0 0 24 25" fill="none" xmlns="http://www.w3.org/2000/svg">
<path d="M20.2081 15.8998C18.9437 14.6355 17.4387 13.6994 15.7966 13.1328C17.5553 11.9215 18.7107 9.89434 18.7107 7.6021C18.7107 3.9014 15.7 0.890625 11.9993 0.890625C8.29856 0.890625 5.28778 3.9014 5.28778 7.6021C5.28778 9.89434 6.4432 11.9215 8.20193 13.1328C6.55988 13.6994 5.05488 14.6355 3.79045 15.8998C1.59779 18.0925 0.794922 20.1513 0.794922 23.2521L2.20413 24.1087C2.20413 18.7076 6.5982 14.3136 11.9993 14.3136C17.4003 14.3136 21.7944 18.7076 21.7944 24.1087L23.3347 22.9327C23.3347 19.8318 22.4007 18.0925 20.2081 15.8998ZM11.9993 12.4997C9.29875 12.4997 7.1017 10.3027 7.1017 7.6021C7.1017 4.90155 9.29875 2.70454 11.9993 2.70454C14.6998 2.70454 16.8968 4.90155 16.8968 7.6021C16.8968 10.3027 14.6998 12.4997 11.9993 12.4997Z" fill="#58C5C7"/>
</svg>
